<?xml version="1.0" encoding="UTF-8" standalone="no"?>
<svg width="1024" height="1024" viewBox="0 0 1024 1024" xmlns="http://www.w3.org/2000/svg">
  <!-- Background -->
  <rect x="0" y="0" width="1024" height="1024" rx="200" ry="200" fill="#1565C0" />
  
  <!-- Pallet Icon -->
  <g transform="translate(512, 512) scale(0.7)">
    <!-- Bottom Pallet -->
    <rect x="-350" y="50" width="700" height="100" rx="20" ry="20" fill="#FFFFFF" />
    <rect x="-350" y="200" width="700" height="100" rx="20" ry="20" fill="#FFFFFF" />
    <rect x="-350" y="350" width="700" height="100" rx="20" ry="20" fill="#FFFFFF" />
    
    <!-- Vertical Supports -->
    <rect x="-300" y="-400" width="50" height="800" rx="10" ry="10" fill="#FFFFFF" />
    <rect x="-50" y="-400" width="50" height="800" rx="10" ry="10" fill="#FFFFFF" />
    <rect x="250" y="-400" width="50" height="800" rx="10" ry="10" fill="#FFFFFF" />
    
    <!-- Top Pallet -->
    <rect x="-350" y="-350" width="700" height="100" rx="20" ry="20" fill="#FFFFFF" />
    <rect x="-350" y="-200" width="700" height="100" rx="20" ry="20" fill="#FFFFFF" />
    <rect x="-350" y="-50" width="700" height="100" rx="20" ry="20" fill="#FFFFFF" />
  </g>
  
  <!-- "PRO" Text -->
  <text x="512" y="800" font-family="Arial, sans-serif" font-size="120" font-weight="bold" text-anchor="middle" fill="#FFFFFF">PRO</text>
</svg>
